<svg width="64" height="64" viewBox="0 0 64 64" fill="none" xmlns="http://www.w3.org/2000/svg">
<path d="M54.625 0H9.375C4.20557 0 0 4.20557 0 9.375V54.625C0 59.7944 4.20557 64 9.375 64H54.625C59.7944 64 64 59.7944 64 54.625V9.375C64 4.20557 59.7944 0 54.625 0ZM60.25 54.625C60.25 57.7266 57.7266 60.25 54.625 60.25H9.375C6.27344 60.25 3.75 57.7266 3.75 54.625V9.375C3.75 6.27344 6.27344 3.75 9.375 3.75H54.625C57.7266 3.75 60.25 6.27344 60.25 9.375V54.625Z" fill="#CEC28C"/>
<path d="M11.375 52.75H22.625V26.25H11.375V52.75ZM15.125 30H18.875V49H15.125V30Z" fill="#CEC28C"/>
<path d="M41.3857 26.25C41.3823 26.25 41.3784 26.25 41.375 26.25C40.0786 26.25 38.8159 26.4668 37.625 26.8877V26.25H26.375V52.75H37.625V39.375C37.625 38.3413 38.4663 37.5 39.5 37.5C40.5337 37.5 41.375 38.3413 41.375 39.375V52.75H52.625V38.0859C52.625 32.0176 47.7021 26.2559 41.3857 26.25ZM48.875 49H45.125V39.375C45.125 36.2734 42.6016 33.75 39.5 33.75C36.3984 33.75 33.8755 36.2734 33.875 39.3745V49H30.125V30H33.875V33.7524L36.876 31.4985C38.1812 30.5181 39.7368 30 41.375 30H41.3823C45.3735 30.0039 48.875 33.7822 48.875 38.0859V49Z" fill="#CEC28C"/>
<path d="M11.375 22.5H22.625V11.25H11.375V22.5ZM15.125 15H18.875V18.75H15.125V15Z" fill="#CEC28C"/>
</svg>
